<?xml version="1.0" encoding="UTF-8" standalone="no"?>
<!-- Created with Inkscape (http://www.inkscape.org/) -->

<svg
   width="4925.8955"
   height="1896.2931"
   viewBox="0 0 1303.3099 501.72756"
   version="1.1"
   id="svg1"
   inkscape:version="1.3.2 (091e20e, 2023-11-25)"
   sodipodi:docname="RSC-Transport-Logo_ICON_TEXT-WHITE_FULL-COLOR.svg"
   inkscape:export-filename="RSC_Icon.png"
   inkscape:export-xdpi="96"
   inkscape:export-ydpi="96"
   xmlns:inkscape="http://www.inkscape.org/namespaces/inkscape"
   xmlns:sodipodi="http://sodipodi.sourceforge.net/DTD/sodipodi-0.dtd"
   xmlns="http://www.w3.org/2000/svg"
   xmlns:svg="http://www.w3.org/2000/svg">
  <sodipodi:namedview
     id="namedview1"
     pagecolor="#ffffff"
     bordercolor="#000000"
     borderopacity="0.25"
     inkscape:showpageshadow="2"
     inkscape:pageopacity="0.0"
     inkscape:pagecheckerboard="0"
     inkscape:deskcolor="#d1d1d1"
     inkscape:document-units="mm"
     showguides="false"
     inkscape:zoom="0.1767767"
     inkscape:cx="3563.8181"
     inkscape:cy="840.04283"
     inkscape:window-width="1920"
     inkscape:window-height="976"
     inkscape:window-x="0"
     inkscape:window-y="25"
     inkscape:window-maximized="0"
     inkscape:current-layer="layer1">
    <sodipodi:guide
       position="26.279154,1706.1768"
       orientation="0,-1"
       id="guide18"
       inkscape:locked="false" />
    <sodipodi:guide
       position="-17.683023,1674.4992"
       orientation="1,0"
       id="guide20"
       inkscape:locked="false" />
    <sodipodi:guide
       position="27.450142,1640.3121"
       orientation="0,-1"
       id="guide45"
       inkscape:locked="false" />
    <sodipodi:guide
       position="195.82127,1673.2445"
       orientation="0,-1"
       id="guide46"
       inkscape:locked="false" />
    <sodipodi:guide
       position="24.442574,1662.3139"
       orientation="1,0"
       id="guide47"
       inkscape:locked="false" />
    <sodipodi:guide
       position="195.76133,1701.3265"
       orientation="1,0"
       id="guide48"
       inkscape:locked="false" />
    <sodipodi:guide
       position="110.10247,1707.3974"
       orientation="1,0"
       id="guide49"
       inkscape:locked="false" />
  </sodipodi:namedview>
  <defs
     id="defs1">
    <filter
       style="color-interpolation-filters:sRGB"
       inkscape:label="Drop Shadow"
       id="filter42"
       x="0"
       y="0"
       width="1.0116743"
       height="1.0456277">
      <feFlood
         result="flood"
         in="SourceGraphic"
         flood-opacity="1.000000"
         flood-color="rgb(0,21,54)"
         id="feFlood41" />
      <feGaussianBlur
         result="blur"
         in="SourceGraphic"
         stdDeviation="0.000000"
         id="feGaussianBlur41" />
      <feOffset
         result="offset"
         in="blur"
         dx="2.000000"
         dy="2.000000"
         id="feOffset41" />
      <feComposite
         result="comp1"
         operator="in"
         in="flood"
         in2="offset"
         id="feComposite41" />
      <feComposite
         result="comp2"
         operator="over"
         in="SourceGraphic"
         in2="comp1"
         id="feComposite42" />
    </filter>
  </defs>
  <g
     inkscape:label="Layer 1"
     inkscape:groupmode="layer"
     id="layer1"
     transform="translate(-41.721865,-435.58967)">
    <path
       id="path44"
       style="font-weight:600;font-size:61.7361px;line-height:0;font-family:Teko;-inkscape-font-specification:'Teko, Semi-Bold';letter-spacing:0px;word-spacing:0px;display:inline;fill:#001536;fill-opacity:1;stroke:none;stroke-width:3.17501;stroke-linecap:square;stroke-miterlimit:25.2;paint-order:stroke fill markers"
       d="m 493.8234,450.64888 -423.367779,0.008 79.192829,85.47788 210.82442,0.005 -13.87296,35.78114 -210.71549,0.005 -80.211819,208.6153 H 212.25367 l 34.84765,-90.60365 h 54.82667 l -34.84762,90.60388 h 157.51449 l 39.02858,-101.29155 -43.21343,-33.9181 68.76577,-33.45526 49.25339,-127.77343 z m 151.47066,0 -71.55436,33.45526 -52.55933,136.38034 48.69337,36.92842 h 149.76328 l -14.40575,37.63625 H 492.89393 l -32.98863,85.4934 h 311.76986 l 72.02106,-38.56574 52.50093,-136.60206 -42.74674,-33.45526 H 696.40657 l 13.93903,-35.7772 h 212.33735 l 32.98852,-85.49341 z m 410.27274,0 -78.51995,35.77715 -96.00218,249.87638 54.64776,44.24014 h 230.45727 c 27.3114,-13.57673 54.6204,-27.15789 81.931,-40.73598 l 29.037,-75.89476 h -155.6631 l -11.9168,31.13734 h -55.8261 l 60.8667,-158.90686 h 55.7561 c -4.5405,11.93571 -9.1386,23.84961 -13.6901,35.78106 h 155.6554 c 10.9102,-28.49922 21.8207,-56.99819 32.7319,-85.49732 l -50.6457,-35.77715 z" />
    <path
       id="path18"
       style="font-weight:600;font-size:61.7361px;line-height:0;font-family:Teko;-inkscape-font-specification:'Teko, Semi-Bold';letter-spacing:0px;word-spacing:0px;display:inline;fill:#ff002d;fill-opacity:1;stroke:none;stroke-width:3.17501;stroke-linecap:square;stroke-miterlimit:25.2;paint-order:stroke fill markers"
       d="m 479.87271,435.58967 -423.367814,0.008 79.192834,85.47798 210.82436,0.008 -13.87295,35.78106 -210.71545,0.005 L 41.721865,765.485 H 198.30294 l 34.84764,-90.60387 h 54.82673 L 253.12965,765.485 h 157.51451 l 39.02859,-101.29154 -43.21343,-33.91811 68.76577,-33.45533 49.25339,-127.77343 z m 151.47065,0 -71.55443,33.45531 -53.89719,139.85344 44.143,33.45533 H 705.68631 L 691.2805,679.98999 H 478.94315 L 445.9546,765.4834 H 757.72438 L 829.74552,726.91767 882.24645,590.31559 839.4997,556.86036 H 682.45578 l 13.93913,-35.77723 h 212.33726 l 32.98864,-85.49346 z m 410.27274,0 -78.52002,35.7772 -97.11056,252.7622 51.10858,41.35433 h 235.105 c 27.3113,-13.57674 54.6204,-27.1579 81.9308,-40.73597 l 29.0371,-75.89477 h -155.6632 l -11.9166,31.13733 h -55.8263 l 60.8667,-158.90686 h 55.7563 c -4.5405,11.93573 -9.1386,23.84963 -13.6901,35.78106 h 155.6554 c 10.9101,-28.49943 21.8206,-56.99819 32.7319,-85.49732 l -50.6458,-35.7772 z"
       sodipodi:nodetypes="ccccccccccccccccccccccccccccccccccccccccccccccccccc"
       inkscape:label="path18" />
    <path
       style="font-size:114.167px;line-height:0;font-family:Passager;-inkscape-font-specification:Passager;letter-spacing:64.4584px;word-spacing:0px;fill:#ffffff;stroke-width:3.17501;stroke-linecap:square;stroke-miterlimit:25.2;paint-order:stroke fill markers"
       d="M 65.084246,929.3456 V 859.27337 H 43.677933 41.726837 v -1.9511 -7.41416 -1.9511 h 1.951096 56.972007 1.9511 v 1.9511 7.41416 1.9511 h -1.9511 -21.294819 v 70.07223 1.95109 H 77.125297 67.31407 65.084246 Z m 120.259744,1.95109 h -1.95109 -8.69632 -1.9511 v -1.95109 -79.43749 -1.9511 h 1.9511 31.60776 q 4.62688,0 8.97504,0.6132 4.45965,0.66895 8.3061,2.34132 6.74522,3.01026 10.7589,9.08653 4.01368,6.07627 4.01368,14.15939 0,5.79754 -1.89535,10.53592 -1.89535,4.73837 -4.90561,8.13885 -3.06601,3.40049 -7.19118,5.35158 -2.62005,1.22641 -5.29584,1.83961 4.96136,6.57798 9.58825,13.04447 5.18434,7.63715 10.31293,15.38579 l 1.89535,2.84302 h -3.56771 -10.36869 -1.2264 l -0.6132,-0.89193 q -5.57456,-7.46991 -11.09338,-14.93982 -5.51881,-7.46991 -11.03763,-15.05131 l -0.33447,-0.44597 v -0.55745 -7.02395 -1.83961 h 2.17408 q 4.12517,0 6.52223,-0.11149 2.17408,-0.11149 4.84987,-0.78044 1.9511,-0.50171 3.56772,-1.8396 1.78386,-1.39364 3.06601,-3.34474 1.28215,-1.95109 2.00684,-4.45965 0.78044,-2.56429 0.78044,-5.24008 0,-5.07285 -2.17408,-8.41759 -2.17408,-3.34473 -5.85329,-5.12859 -2.28557,-1.05917 -5.0171,-1.50514 -2.89877,-0.44596 -6.24351,-0.44596 h -20.96035 v 70.07223 z m 161.62298,-90.25213 1.9511,4.18092 38.96618,83.45117 1.17065,2.62004 h -2.95451 -9.47676 -1.28215 l -0.55745,-1.17066 -27.81706,-61.98911 -28.09578,61.98911 -0.55746,1.17066 h -1.28215 -9.47675 -2.95452 l 1.17066,-2.62004 39.30065,-83.45117 z m 110.11407,1.11491 3.40048,3.67921 61.93337,63.21552 v -59.14609 -1.9511 h 1.9511 8.69631 1.9511 v 1.9511 82.392 5.01711 l -3.40048,-3.67921 -61.93337,-63.32701 v 59.0346 1.95109 h -1.9511 -8.69631 -1.9511 v -1.95109 -82.16903 z m 194.62435,88.30104 q -5.85329,1.95109 -12.43127,1.95109 -9.58825,0 -17.95009,-3.23324 -7.5814,-3.23325 -13.15596,-10.1457 l -1.17066,-1.50513 1.44939,-1.22641 6.2435,-5.24008 1.56088,-1.28215 1.28215,1.61662 q 3.40048,4.45965 9.25377,7.13544 5.7418,2.67579 12.71,2.67579 4.12517,0 7.35842,-1.11491 3.28899,-1.11492 5.51881,-2.95452 2.28557,-1.83961 3.51198,-4.34816 1.11491,-2.50855 1.11491,-5.46307 0,-2.5643 -0.94768,-4.4039 -1.11491,-1.9511 -2.95451,-3.40048 -1.89535,-1.56088 -4.57114,-2.67579 -2.84303,-1.22641 -5.90904,-2.28557 l -11.03763,-3.56772 q -4.06943,-1.3379 -7.74864,-3.06601 -3.7907,-1.8396 -6.41074,-4.51539 -2.62004,-2.67579 -4.18092,-6.13202 -1.61662,-3.56772 -1.61662,-8.25035 0,-4.73838 2.06258,-8.8078 2.06259,-4.06943 5.63031,-7.02395 3.7907,-2.89877 9.14228,-4.62689 5.40732,-1.78386 11.59509,-1.78386 8.8078,0 14.82833,2.28557 5.35157,2.22983 9.92271,6.24351 l 1.44939,1.28215 -1.28215,1.44939 -5.24009,6.02052 -1.33789,1.56088 -1.44939,-1.44939 q -3.34473,-2.89877 -7.41416,-4.45965 -4.01369,-1.56087 -9.47675,-1.56087 -3.34474,0 -6.13202,0.83618 -2.73154,0.83619 -4.79412,2.39706 -2.06259,1.56088 -3.23325,3.56772 -1.11491,2.00684 -1.11491,4.4039 0,2.22983 0.94767,3.79071 0.94768,1.72811 2.62005,3.01026 1.67237,1.39364 4.06943,2.4528 2.50855,1.11492 5.29583,2.06259 l 10.70316,3.56772 q 4.23666,1.44939 8.13885,3.28899 3.67921,1.89535 6.52224,4.62689 2.95452,2.78728 4.68263,6.57798 1.78386,3.84645 1.78386,8.97504 0,5.24009 -2.22982,9.75548 -2.22983,4.45965 -6.07627,7.80439 -3.9022,3.34473 -9.5325,5.18434 z m 89.8784,-82.5035 h 1.95109 28.20728 q 4.84987,0 9.36526,0.72469 4.57114,0.7247 8.13886,2.22983 6.13202,3.12175 10.25719,8.97504 4.23667,6.02053 4.23667,14.5496 0,4.90562 -1.3379,9.08654 -1.33789,4.18092 -3.62346,7.46991 -2.28557,3.23324 -5.24009,5.51881 -2.95452,2.39707 -6.74522,3.56772 -3.23324,0.94768 -6.9682,1.28215 -3.56772,0.27873 -8.58482,0.27873 h -17.05816 v 27.70557 1.95109 h -1.95109 -8.69632 -1.95109 v -1.95109 -79.43749 z m 12.5985,42.36666 h 17.16965 q 3.73496,0 5.90903,-0.11149 2.00685,-0.11149 4.34816,-0.78044 1.89535,-0.50171 3.56772,-1.78386 1.72811,-1.28215 3.12175,-3.1775 1.39364,-1.95109 2.17408,-4.45965 0.7247,-2.50855 0.7247,-5.35157 0,-5.35158 -2.22983,-8.58483 -2.39706,-3.28899 -5.90903,-4.90561 -4.01369,-1.89535 -11.31636,-1.89535 h -17.55987 z m 165.46945,-32.66692 -1.89535,0.16723 q -5.74179,0.44597 -10.64741,2.50856 -6.355,2.62004 -10.87039,6.9682 -4.57114,4.34815 -7.13544,10.20144 -2.50855,5.85329 -2.50855,12.26404 0,6.52223 2.50855,12.26403 2.5643,5.7418 7.07969,10.08995 4.5154,4.29242 10.8704,6.85671 4.96136,2.00684 10.70315,2.45281 l 1.89535,0.11149 v 1.72811 7.0797 2.11833 l -2.22982,-0.16724 q -7.97162,-0.50171 -15.10706,-3.12175 -8.75206,-3.23325 -15.1628,-9.03079 -6.07627,-5.7418 -9.64399,-13.54618 -3.51198,-7.74864 -3.51198,-16.83517 0,-8.9193 3.56772,-16.77943 3.62347,-7.80439 9.69974,-13.60193 6.41074,-5.85329 15.1628,-9.25377 7.13544,-2.73153 14.99557,-3.23324 l 2.22982,-0.16724 v 2.11833 7.13544 z m 0.50171,63.94021 2.00685,-0.0557 q 7.07969,-0.22298 12.87723,-2.45281 6.29925,-2.4528 10.81465,-6.74521 4.51539,-4.34816 6.9682,-10.08996 2.39706,-5.7418 2.39706,-12.37552 0,-6.91246 -2.39706,-12.76575 -2.45281,-5.85329 -6.91246,-10.20144 -4.45964,-4.29241 -10.7589,-6.74522 -5.85329,-2.22982 -12.98872,-2.45281 l -2.00685,-0.0557 v -1.78386 -7.13544 -2.00684 l 2.11834,0.0557 q 9.42101,0.22299 17.55986,3.23325 8.75206,3.28899 15.10706,9.08653 6.07627,5.7418 9.47676,13.60193 3.40048,7.80439 3.40048,16.89092 0,9.25377 -3.45623,17.05815 -3.45623,7.86013 -9.5325,13.60193 -6.355,5.79754 -15.05131,8.97504 -8.19461,2.95452 -17.50412,3.1775 l -2.11834,0.0557 v -2.00684 -7.07969 z m 133.80595,9.69973 h -1.9511 -8.6963 -1.9511 v -1.95109 -79.43749 -1.9511 h 1.9511 31.6077 q 4.6269,0 8.9751,0.6132 4.4596,0.66895 8.3061,2.34132 6.7452,3.01026 10.7589,9.08653 4.0137,6.07627 4.0137,14.15939 0,5.79754 -1.8954,10.53592 -1.8953,4.73837 -4.9056,8.13885 -3.066,3.40049 -7.1912,5.35158 -2.62,1.22641 -5.2958,1.83961 4.9613,6.57798 9.5882,13.04447 5.1844,7.63715 10.313,15.38579 l 1.8953,2.84302 h -3.5677 -10.3687 -1.2264 l -0.6132,-0.89193 q -5.5746,-7.46991 -11.0934,-14.93982 -5.5188,-7.46991 -11.0376,-15.05131 l -0.3345,-0.44597 v -0.55745 -7.02395 -1.83961 h 2.1741 q 4.1252,0 6.5222,-0.11149 2.1741,-0.11149 4.8499,-0.78044 1.9511,-0.50171 3.5677,-1.8396 1.7839,-1.39364 3.066,-3.34474 1.2822,-1.95109 2.0069,-4.45965 0.7804,-2.56429 0.7804,-5.24008 0,-5.07285 -2.1741,-8.41759 -2.174,-3.34473 -5.8532,-5.12859 -2.2856,-1.05917 -5.0172,-1.50514 -2.8987,-0.44596 -6.2435,-0.44596 h -20.9603 v 70.07223 z m 142.6137,-1.95109 v -70.07223 h -21.4063 -1.9511 v -1.9511 -7.41416 -1.9511 h 1.9511 56.972 1.9511 v 1.9511 7.41416 1.9511 h -1.9511 -21.2948 v 70.07223 1.95109 h -2.2298 -9.8112 -2.2299 z"
       id="text45"
       aria-label="TRANSPORT" />
  </g>
</svg>
