<?xml version="1.0" encoding="UTF-8" standalone="no"?>
<!-- Created with Inkscape (http://www.inkscape.org/) -->

<svg
   width="5000"
   height="5000"
   viewBox="0 0 1322.9167 1322.9167"
   version="1.1"
   id="svg1"
   inkscape:version="1.3.2 (091e20e, 2023-11-25)"
   sodipodi:docname="RSC-Transport-Logo_ICON_ROUND_MAIN-COLOR.svg"
   inkscape:export-filename="../MAIN COLOR/RSC_Icon_Circular_MainColor.png"
   inkscape:export-xdpi="96"
   inkscape:export-ydpi="96"
   xmlns:inkscape="http://www.inkscape.org/namespaces/inkscape"
   xmlns:sodipodi="http://sodipodi.sourceforge.net/DTD/sodipodi-0.dtd"
   xmlns="http://www.w3.org/2000/svg"
   xmlns:svg="http://www.w3.org/2000/svg">
  <sodipodi:namedview
     id="namedview1"
     pagecolor="#ffffff"
     bordercolor="#000000"
     borderopacity="0.25"
     inkscape:showpageshadow="2"
     inkscape:pageopacity="0.0"
     inkscape:pagecheckerboard="0"
     inkscape:deskcolor="#d1d1d1"
     inkscape:document-units="mm"
     showguides="false"
     inkscape:zoom="0.088388348"
     inkscape:cx="2421.1336"
     inkscape:cy="1974.2421"
     inkscape:window-width="1920"
     inkscape:window-height="976"
     inkscape:window-x="0"
     inkscape:window-y="25"
     inkscape:window-maximized="0"
     inkscape:current-layer="layer1">
    <sodipodi:guide
       position="35.238385,1295.6609"
       orientation="0,-1"
       id="guide18"
       inkscape:locked="false" />
    <sodipodi:guide
       position="-8.7237916,1263.9833"
       orientation="1,0"
       id="guide20"
       inkscape:locked="false" />
    <sodipodi:guide
       position="36.409373,1229.7962"
       orientation="0,-1"
       id="guide45"
       inkscape:locked="false" />
    <sodipodi:guide
       position="204.7805,1262.7286"
       orientation="0,-1"
       id="guide46"
       inkscape:locked="false" />
    <sodipodi:guide
       position="33.401805,1251.798"
       orientation="1,0"
       id="guide47"
       inkscape:locked="false" />
    <sodipodi:guide
       position="204.72056,1290.8106"
       orientation="1,0"
       id="guide48"
       inkscape:locked="false" />
    <sodipodi:guide
       position="119.0617,1296.8815"
       orientation="1,0"
       id="guide49"
       inkscape:locked="false" />
  </sodipodi:namedview>
  <defs
     id="defs1">
    <filter
       style="color-interpolation-filters:sRGB"
       inkscape:label="Drop Shadow"
       id="filter42"
       x="0"
       y="0"
       width="1.0116743"
       height="1.0456277">
      <feFlood
         result="flood"
         in="SourceGraphic"
         flood-opacity="1.000000"
         flood-color="rgb(0,21,54)"
         id="feFlood41" />
      <feGaussianBlur
         result="blur"
         in="SourceGraphic"
         stdDeviation="0.000000"
         id="feGaussianBlur41" />
      <feOffset
         result="offset"
         in="blur"
         dx="2.000000"
         dy="2.000000"
         id="feOffset41" />
      <feComposite
         result="comp1"
         operator="in"
         in="flood"
         in2="offset"
         id="feComposite41" />
      <feComposite
         result="comp2"
         operator="over"
         in="SourceGraphic"
         in2="comp1"
         id="feComposite42" />
    </filter>
  </defs>
  <g
     inkscape:label="Layer 1"
     inkscape:groupmode="layer"
     id="layer1"
     transform="translate(-32.762634,-25.073792)">
    <circle
       style="fill:#ffffff;fill-opacity:1;stroke:none;stroke-width:0;stroke-linecap:square;stroke-miterlimit:25.2;stroke-dasharray:none;stroke-opacity:1;paint-order:stroke fill markers"
       id="path46"
       cx="694.22095"
       cy="686.5321"
       r="661.45831" />
    <path
       id="path44"
       style="font-weight:600;font-size:61.7361px;line-height:0;font-family:Teko;-inkscape-font-specification:'Teko, Semi-Bold';letter-spacing:0px;word-spacing:0px;display:none;fill:#001536;fill-opacity:1;stroke:none;stroke-width:3.175;stroke-linecap:square;stroke-miterlimit:25.2;paint-order:stroke fill markers"
       d="m 552.05992,514.69504 -312.51605,0.006 58.45752,63.09694 155.62359,0.003 -10.24056,26.41245 -155.54319,0.003 -59.2097,153.99289 h 115.58295 l 25.72338,-66.88061 h 40.47123 l -25.72335,66.88078 H 500.9577 l 28.80961,-74.77006 -31.89872,-25.03722 50.76061,-24.69556 36.35722,-94.31811 z m 111.81062,0 -52.81906,24.69556 -38.79756,100.67144 35.94384,27.25933 H 718.74804 L 708.1142,695.10321 H 551.37381 L 527.0227,758.2116 h 230.13817 l 53.16356,-28.46795 38.75444,-100.83511 -31.55422,-24.69556 H 701.60009 l 10.28933,-26.40955 h 156.74039 l 24.35106,-63.10839 z m 302.84972,0 -57.96083,26.4095 -70.86562,184.45045 40.33917,32.65661 h 170.11592 c 20.1603,-10.02189 40.319,-20.04706 60.4787,-30.06995 l 21.4342,-56.023 h -114.9054 l -8.7965,22.98456 h -41.20903 l 44.92973,-117.29978 h 41.1574 c -3.3517,8.81055 -6.7458,17.605 -10.1056,26.41239 h 114.8997 c 8.0535,-21.03717 16.1072,-42.07417 24.1616,-63.11128 l -37.385,-26.4095 z" />
    <path
       id="path18"
       style="font-weight:600;font-size:61.7361px;line-height:0;font-family:Teko;-inkscape-font-specification:'Teko, Semi-Bold';letter-spacing:0px;word-spacing:0px;display:inline;fill:#ff002d;fill-opacity:1;stroke:none;stroke-width:3.175;stroke-linecap:square;stroke-miterlimit:25.2;paint-order:stroke fill markers"
       d="m 541.76198,503.57882 -312.51608,0.006 58.45753,63.097 155.62355,0.006 -10.24056,26.41239 -155.54315,0.003 -59.20971,153.99289 h 115.58296 l 25.72337,-66.88078 h 40.47127 l -25.72339,66.88078 h 116.27199 l 28.80961,-74.77006 -31.89872,-25.03722 50.76061,-24.69561 36.35722,-94.31811 z m 111.81061,0 -52.81911,24.69561 -39.78511,103.23517 32.58489,24.69561 H 708.45009 L 697.8162,683.98704 H 541.07581 l -24.35105,63.10839 H 746.86287 L 800.02648,718.62749 838.78093,617.79237 807.2267,593.09682 H 691.30209 l 10.28939,-26.40956 h 156.74033 l 24.35112,-63.10844 z m 302.84973,0 -57.96089,26.40955 -71.68378,186.58067 37.72666,30.52639 H 1038.051 c 20.1603,-10.02189 40.319,-20.04706 60.4786,-30.06994 l 21.4343,-56.023 h -114.9055 l -8.79642,22.98455 h -41.20911 l 44.92978,-117.29978 h 41.15745 c -3.3517,8.81056 -6.7458,17.605 -10.1056,26.41239 h 114.8997 c 8.0535,-21.03733 16.1072,-42.07417 24.1616,-63.11128 l -37.3851,-26.40955 z"
       sodipodi:nodetypes="ccccccccccccccccccccccccccccccccccccccccccccccccccc"
       inkscape:label="path18" />
    <path
       style="font-size:84.2744px;line-height:0;font-family:Passager;-inkscape-font-specification:Passager;letter-spacing:47.581px;word-spacing:0px;fill:#ff002d;stroke-width:3.175;stroke-linecap:square;stroke-miterlimit:25.2;paint-order:stroke fill markers"
       d="m 235.57892,868.05305 v -51.72506 h -15.80145 -1.44024 v -1.44023 -5.4729 -1.44024 h 1.44024 42.0549 1.44024 v 1.44024 5.4729 1.44023 h -1.44024 -15.71915 v 51.72506 1.44024 h -1.64598 -7.24234 -1.64598 z m 88.77176,1.44024 h -1.44024 -6.41934 -1.44023 v -1.44024 -58.63819 -1.44024 h 1.44023 23.33183 q 3.41542,0 6.62509,0.45265 3.29197,0.49379 6.13129,1.72828 4.9791,2.22208 7.94187,6.70739 2.96278,4.4853 2.96278,10.452 0,4.27956 -1.39909,7.77727 -1.39909,3.49772 -3.62117,6.00785 -2.26322,2.51012 -5.30829,3.95036 -1.93404,0.90529 -3.90922,1.35794 3.66232,4.85565 7.07773,9.629 3.82692,5.6375 7.61268,11.3573 l 1.39909,2.09863 h -2.63358 -7.65382 -0.90529 l -0.45265,-0.6584 q -4.11496,-5.51405 -8.18877,-11.02809 -4.07381,-5.51405 -8.14762,-11.1104 l -0.2469,-0.32919 v -0.4115 -5.18485 -1.35794 h 1.60483 q 3.04507,0 4.81451,-0.0823 1.60483,-0.0823 3.58001,-0.57609 1.44024,-0.37035 2.63358,-1.35794 1.31678,-1.02874 2.26323,-2.46898 0.94644,-1.44023 1.48138,-3.29196 0.5761,-1.89289 0.5761,-3.86807 0,-3.74461 -1.60484,-6.21359 -1.60483,-2.46897 -4.32071,-3.78576 -1.68713,-0.78184 -3.70346,-1.11104 -2.13978,-0.3292 -4.60876,-0.3292 h -15.47225 v 51.72506 z m 119.30477,-66.62122 1.44023,3.08622 28.76358,61.60096 0.86414,1.93404 h -2.18093 -6.99543 -0.94644 l -0.4115,-0.86415 -20.53365,-45.75836 -20.73941,45.75836 -0.41149,0.86415 h -0.94644 -6.99544 -2.18093 l 0.86415,-1.93404 29.01047,-61.60096 z m 81.28252,0.82299 2.51012,2.71588 45.71722,46.66365 v -43.65973 -1.44024 h 1.44024 6.41933 1.44024 v 1.44024 60.81912 3.70346 l -2.51013,-2.71587 -45.71721,-46.74596 v 43.57744 1.44024 h -1.44024 -6.41934 -1.44023 v -1.44024 -60.65452 z m 143.66535,65.18098 q -4.32071,1.44024 -9.17637,1.44024 -7.07773,0 -13.25017,-2.38668 -5.59635,-2.38668 -9.71131,-7.48923 l -0.86414,-1.11104 1.06989,-0.90529 4.60876,-3.86806 1.15219,-0.94644 0.94644,1.19334 q 2.51012,3.29196 6.83083,5.26715 4.23841,1.97518 9.38211,1.97518 3.04507,0 5.43175,-0.823 2.42783,-0.82299 4.07381,-2.18092 1.68714,-1.35794 2.59243,-3.20967 0.82299,-1.85174 0.82299,-4.03267 0,-1.89288 -0.69954,-3.25081 -0.823,-1.44024 -2.18093,-2.51013 -1.39909,-1.15219 -3.37427,-1.97518 -2.09863,-0.90529 -4.36186,-1.68714 l -8.14762,-2.63357 q -3.00392,-0.98759 -5.7198,-2.26323 -2.79817,-1.35794 -4.7322,-3.33312 -1.93403,-1.97518 -3.08622,-4.52645 -1.19334,-2.63358 -1.19334,-6.09015 0,-3.49771 1.52253,-6.50164 1.52254,-3.00392 4.15611,-5.18485 2.79818,-2.13978 6.74854,-3.41541 3.99151,-1.31679 8.55912,-1.31679 6.50164,0 10.94579,1.68713 3.95037,1.64599 7.32463,4.60876 l 1.06989,0.94644 -0.94644,1.06989 -3.86806,4.44416 -0.98759,1.15219 -1.06989,-1.06989 q -2.46898,-2.13978 -5.4729,-3.29197 -2.96277,-1.15219 -6.99543,-1.15219 -2.46898,0 -4.52646,0.61724 -2.01633,0.61725 -3.53887,1.76944 -1.52253,1.15219 -2.38667,2.63357 -0.82299,1.48139 -0.82299,3.25082 0,1.64599 0.69954,2.79817 0.69954,1.27564 1.93403,2.22208 1.23449,1.02874 3.00392,1.81059 1.85173,0.82299 3.90921,1.52253 l 7.90073,2.63358 q 3.12737,1.06989 6.00784,2.42782 2.71588,1.39909 4.81451,3.41542 2.18093,2.05748 3.45656,4.85565 1.31679,2.83933 1.31679,6.62509 0,3.86806 -1.64598,7.20118 -1.64599,3.29197 -4.48531,5.76095 -2.88047,2.46897 -7.03658,3.82691 z m 66.34524,-60.90142 h 1.44023 20.82171 q 3.58001,0 6.91313,0.53495 3.37427,0.53494 6.00784,1.64598 4.52646,2.30438 7.57153,6.62509 3.12737,4.44416 3.12737,10.74005 0,3.62116 -0.98759,6.70738 -0.98759,3.08622 -2.67472,5.51405 -1.68714,2.38668 -3.86807,4.07381 -2.18093,1.76943 -4.9791,2.63358 -2.38668,0.69954 -5.1437,0.94644 -2.63358,0.20574 -6.33704,0.20574 h -12.59178 v 20.45136 1.44024 h -1.44024 -6.41934 -1.44023 v -1.44024 -58.63819 z m 9.29981,31.2737 h 12.67408 q 2.75702,0 4.36186,-0.0823 1.48138,-0.0823 3.20967,-0.57609 1.39908,-0.37035 2.63357,-1.31679 1.27564,-0.94644 2.30438,-2.34553 1.02874,-1.44023 1.60483,-3.29196 0.53495,-1.85174 0.53495,-3.95037 0,-3.95036 -1.64599,-6.33704 -1.76943,-2.42782 -4.36185,-3.62116 -2.96278,-1.39909 -8.35337,-1.39909 h -12.96213 z m 122.14409,-24.11367 -1.39909,0.12345 q -4.23841,0.3292 -7.85957,1.85173 -4.69106,1.93404 -8.02418,5.14371 -3.37427,3.20966 -5.26715,7.53037 -1.85173,4.32071 -1.85173,9.05292 0,4.8145 1.85173,9.05291 1.89288,4.23841 5.226,7.44808 3.33312,3.16852 8.02418,5.0614 3.66231,1.48139 7.90072,1.81059 l 1.39909,0.0823 v 1.27564 5.226 1.56369 l -1.64599,-0.12345 q -5.88439,-0.37035 -11.15154,-2.30438 -6.46049,-2.38668 -11.19269,-6.66624 -4.48531,-4.23841 -7.11889,-9.99935 -2.59242,-5.7198 -2.59242,-12.42718 0,-6.58394 2.63357,-12.38603 2.67473,-5.76095 7.16003,-10.04051 4.73221,-4.32071 11.1927,-6.83083 5.26715,-2.01634 11.06924,-2.38668 l 1.64599,-0.12345 v 1.56368 5.26715 z m 0.37034,47.1986 1.48139,-0.0412 q 5.226,-0.16459 9.50556,-1.81058 4.6499,-1.81058 7.98302,-4.9791 3.33312,-3.20967 5.1437,-7.44808 1.76944,-4.23841 1.76944,-9.13521 0,-5.10255 -1.76944,-9.42326 -1.81058,-4.32071 -5.10255,-7.53038 -3.29197,-3.16852 -7.94187,-4.9791 -4.32071,-1.64599 -9.58786,-1.81059 l -1.48139,-0.0412 v -1.31678 -5.26715 -1.48139 l 1.56369,0.0412 q 6.95428,0.1646 12.96213,2.38668 6.46048,2.42782 11.15154,6.70738 4.48531,4.23841 6.99543,10.04051 2.51013,5.76094 2.51013,12.46833 0,6.83083 -2.55128,12.59178 -2.55127,5.80209 -7.03658,10.0405 -4.69106,4.27956 -11.11039,6.62509 -6.049,2.18093 -12.92098,2.34553 l -1.56369,0.0412 v -1.48139 -5.226 z m 98.77109,7.16004 h -1.44024 -6.41933 -1.44024 v -1.44024 -58.63819 -1.44024 h 1.44024 23.33182 q 3.41542,0 6.62509,0.45265 3.29197,0.49379 6.13129,1.72828 4.97911,2.22208 7.94188,6.70739 2.9628,4.4853 2.9628,10.452 0,4.27956 -1.3991,7.77727 -1.3991,3.49772 -3.62118,6.00785 -2.26323,2.51012 -5.3083,3.95036 -1.93403,0.90529 -3.90922,1.35794 3.66232,4.85565 7.07774,9.629 3.82696,5.6375 7.61266,11.3573 l 1.3991,2.09863 h -2.6336 -7.6538 -0.90529 l -0.45265,-0.6584 q -4.11496,-5.51405 -8.18877,-11.02809 -4.07381,-5.51405 -8.14762,-11.1104 l -0.2469,-0.32919 v -0.4115 -5.18485 -1.35794 h 1.60483 q 3.04508,0 4.81451,-0.0823 1.60483,-0.0823 3.58001,-0.57609 1.44024,-0.37035 2.63358,-1.35794 1.31679,-1.02874 2.26323,-2.46898 0.94644,-1.44023 1.48138,-3.29196 0.5761,-1.89289 0.5761,-3.86807 0,-3.74461 -1.60484,-6.21359 -1.60483,-2.46897 -4.3207,-3.78576 -1.68714,-0.78184 -3.70347,-1.11104 -2.13978,-0.3292 -4.60876,-0.3292 h -15.47225 v 51.72506 z m 105.27271,-1.44024 v -51.72506 h -15.8014 -1.4402 v -1.44023 -5.4729 -1.44024 h 1.4402 42.0549 1.4402 v 1.44024 5.4729 1.44023 h -1.4402 -15.7192 v 51.72506 1.44024 h -1.6459 -7.2424 -1.646 z"
       id="text45"
       aria-label="TRANSPORT" />
  </g>
</svg>
